<svg xmlns="http://www.w3.org/2000/svg" viewBox="0 0 55 49" width="55" height="49">
	<style>
		tspan { white-space:pre }
		.shp0 { fill: #262626 } 
	</style>
	<path id="icon" class="shp0" d="M30.28,16.73c0.48,-1.16 0.8,-2.51 0.88,-3.92c0.1,-1.42 -0.09,-2.89 -0.51,-4.32c-0.44,-1.43 -1.11,-2.82 -2.05,-4c-0.91,-1.2 -2.08,-2.21 -3.29,-2.87c-1.22,-0.66 -2.48,-0.95 -3.36,-0.92c-0.43,-0.02 -0.81,0.1 -1.03,0.16c-0.22,0.08 -0.34,0.12 -0.34,0.12c0,0 0.03,0.12 0.07,0.35c0.05,0.22 0.05,0.58 0.09,0.92c0.03,0.75 -0.04,1.65 -0.13,2.64c-0.17,1.95 -0.12,4.22 0.58,6.47c0.35,1.12 0.8,2.23 1.42,3.26c0.59,1.03 1.3,1.99 2.02,2.81c0.65,0.73 2.13,2.41 2.67,2.83c0.14,-0.95 0.25,-1.93 0.28,-2.92c0.06,-0.7 0.01,-1.39 0,-2.08c-0.01,-0.69 -0.14,-1.35 -0.19,-2c-0.12,-0.64 -0.27,-1.25 -0.4,-1.84c-0.21,-0.56 -0.4,-1.1 -0.58,-1.59c-0.25,-0.46 -0.48,-0.88 -0.68,-1.26c-0.18,-0.39 -0.47,-0.65 -0.64,-0.9c-0.39,-0.48 -0.61,-0.76 -0.61,-0.76c0,0 0.24,0.26 0.66,0.71c0.19,0.24 0.51,0.48 0.72,0.86c0.23,0.37 0.5,0.78 0.79,1.23c0.22,0.49 0.46,1.02 0.71,1.58c0.17,0.59 0.38,1.21 0.55,1.86c0.11,0.66 0.29,1.34 0.35,2.04c0.06,0.7 0.16,1.42 0.16,2.14c0.03,0.82 0.02,1.62 -0.02,2.42c0.06,-0.07 0.14,-0.13 0.2,-0.2c0.6,-0.68 1.22,-1.66 1.72,-2.82zM23.9,22.68c0.11,0.18 0.2,0.34 0.3,0.52c-5.38,1.03 -9.75,4.91 -11.48,10.01l0.36,0.05c0.44,0 1.12,0.11 2.28,0.32c0.02,-0.34 0.14,-0.68 0.36,-0.96c0.85,-1.13 2.1,-1.73 3.6,-1.73c2.25,0.01 4.64,0.07 7.05,0.8c1.27,0.38 2.57,0.31 3.89,-0.22c3.8,-1.52 7.14,-1.38 9.83,0.38c0.33,0.22 0.68,0.45 1.03,0.68c-1.92,-4.89 -6.3,-8.54 -11.62,-9.4c0.15,-0.25 0.28,-0.51 0.44,-0.77c0.15,-0.24 0.45,-0.88 0.41,-1.03c-0.02,-0.09 -0.01,-0.19 -0.02,-0.28c-0.54,0.68 -1.03,1.37 -1.46,2.02c-0.26,-0.03 -0.53,-0.04 -0.8,-0.06c0.14,-1.01 0.25,-2.1 0.31,-3.24c-0.09,0.09 -0.16,0.18 -0.26,0.26c-0.17,0.11 -0.44,1.02 -0.49,1.38c-0.09,0.54 -0.2,1.04 -0.31,1.54c-0.09,0 -0.18,-0.02 -0.27,-0.02c-0.77,0 -1.54,0.06 -2.28,0.18c-0.38,-0.57 -0.79,-1.14 -1.25,-1.73c0,0.09 0,0.18 -0.02,0.28c-0.04,0.15 0.26,0.8 0.41,1.04zM32.66,18.52c0.39,-0.37 0.83,-0.67 1.22,-0.99c0.42,-0.29 0.85,-0.54 1.24,-0.79c0.43,-0.19 0.82,-0.38 1.19,-0.55c0.39,-0.11 0.75,-0.22 1.06,-0.31c0.31,-0.11 0.61,-0.09 0.84,-0.13c0.47,-0.05 0.73,-0.08 0.73,-0.08c0,0 -0.26,0.05 -0.73,0.13c-0.22,0.06 -0.51,0.06 -0.81,0.19c-0.3,0.11 -0.65,0.24 -1.02,0.38c-0.34,0.19 -0.72,0.4 -1.12,0.62c-0.37,0.27 -0.76,0.54 -1.14,0.85c-0.36,0.34 -0.76,0.66 -1.11,1.04c-0.35,0.38 -0.72,0.75 -1.04,1.18c-0.48,0.58 -0.9,1.19 -1.3,1.8c0.52,0.02 2.2,-0.2 2.93,-0.29c0.82,-0.11 1.7,-0.3 2.55,-0.59c0.86,-0.28 1.68,-0.69 2.43,-1.15c1.52,-0.93 2.68,-2.2 3.55,-3.39c0.44,-0.61 0.85,-1.16 1.24,-1.57c0.19,-0.18 0.38,-0.38 0.51,-0.48c0.14,-0.1 0.22,-0.16 0.22,-0.16c0,0 -0.05,-0.09 -0.14,-0.24c-0.1,-0.14 -0.25,-0.4 -0.51,-0.61c-0.49,-0.46 -1.35,-0.92 -2.38,-1.15c-1.02,-0.23 -2.19,-0.23 -3.3,-0.01c-1.13,0.21 -2.2,0.66 -3.16,1.26c-0.95,0.61 -1.8,1.35 -2.45,2.21c-0.66,0.84 -1.14,1.76 -1.45,2.67c-0.3,0.91 -0.43,1.77 -0.43,2.46c0,0.07 0.01,0.14 0.01,0.22c0.38,-0.47 0.77,-0.94 1.19,-1.39c0.35,-0.41 0.77,-0.77 1.15,-1.14zM10.43,15.21c0.39,0.41 0.8,0.96 1.24,1.57c0.88,1.19 2.03,2.47 3.55,3.39c0.76,0.46 1.57,0.87 2.43,1.15c0.85,0.3 1.73,0.49 2.55,0.59c0.74,0.09 2.42,0.31 2.93,0.28c-0.4,-0.61 -0.82,-1.22 -1.3,-1.8c-0.31,-0.43 -0.69,-0.8 -1.03,-1.18c-0.35,-0.39 -0.75,-0.7 -1.11,-1.04c-0.39,-0.31 -0.78,-0.58 -1.15,-0.85c-0.4,-0.22 -0.77,-0.43 -1.12,-0.62c-0.37,-0.14 -0.71,-0.26 -1.02,-0.38c-0.3,-0.14 -0.59,-0.13 -0.81,-0.19c-0.46,-0.08 -0.72,-0.13 -0.72,-0.13c0,0 0.27,0.03 0.73,0.08c0.23,0.04 0.53,0.02 0.84,0.13c0.31,0.09 0.67,0.2 1.06,0.31c0.37,0.17 0.77,0.35 1.19,0.55c0.39,0.25 0.82,0.5 1.24,0.79c0.39,0.32 0.83,0.62 1.22,0.99c0.38,0.37 0.8,0.72 1.15,1.14c0.42,0.45 0.82,0.92 1.19,1.39c0,-0.07 0.02,-0.14 0.01,-0.22c0.01,-0.69 -0.13,-1.55 -0.42,-2.46c-0.3,-0.9 -0.79,-1.83 -1.45,-2.67c-0.65,-0.86 -1.49,-1.6 -2.44,-2.21c-0.96,-0.59 -2.03,-1.05 -3.16,-1.26c-1.12,-0.23 -2.28,-0.22 -3.3,0.01c-1.02,0.23 -1.89,0.7 -2.38,1.15c-0.25,0.2 -0.41,0.46 -0.51,0.6c-0.09,0.16 -0.14,0.24 -0.14,0.24c0,0 0.07,0.06 0.21,0.16c0.14,0.1 0.32,0.31 0.51,0.48zM47.37,40.3c-2.32,-3.15 -5.36,-5.5 -8.57,-7.59c-2.6,-1.69 -5.56,-1.33 -8.32,-0.23c-1.69,0.68 -3.36,0.76 -4.99,0.26c-2.17,-0.65 -4.34,-0.73 -6.56,-0.73c-0.95,0 -1.73,0.33 -2.3,1.07c-0.32,0.42 2.27,2.14 4.48,2.14c-0.41,0.82 -7.57,-0.92 -8.52,-0.84l-5.41,-0.69c-1.92,-0.16 -1.92,-0.88 -3.81,0.19c-0.06,0.04 -0.16,0.04 -0.24,0.03c-1.05,-0.06 -1.65,0.27 -2.23,0.97c-0.34,0.4 -0.31,0.9 -0.13,1.37c0.19,0.49 0.67,0.36 1.07,0.52c2.42,0.96 3.2,1.43 6.48,2.24c2.33,0.58 4.61,1.28 6.94,1.81c0.96,0.22 1.94,0.38 2.81,0.87c1.85,1.04 3.81,1.35 5.92,1.26c2.39,-0.11 4.79,-0.01 7.2,-0.03c4.21,-0.02 7.41,1.67 9.58,5.38l13.55,-0.03c-2.96,-3.46 -4.26,-4.3 -6.96,-7.97z" />
</svg>