<svg xmlns="http://www.w3.org/2000/svg" viewBox="0 0 55 56" width="55" height="56">
	<style>
		tspan { white-space:pre }
		.shp0 { fill: #262626 } 
	</style>
	<path id="icon" class="shp0" d="M54,15.9c1.03,-0.19 1.33,-1.53 0.48,-2.15c-1.45,-1.06 -3.32,-2.1 -4.72,-1.79l2.9,-7.22c0.4,-0.98 -0.58,-1.96 -1.56,-1.56l-7.22,2.9c0.31,-1.4 -0.73,-3.26 -1.79,-4.72c-0.62,-0.85 -1.96,-0.55 -2.15,0.48c-0.55,2.97 -1.93,6.31 -2.63,7.89c0.77,0.5 1.5,1.09 2.17,1.75l4.87,4.87c0.67,0.67 1.25,1.39 1.76,2.17c1.57,-0.7 4.91,-2.08 7.88,-2.63zM42.73,17.99l-4.87,-4.87c-2.12,-2.12 -4.86,-3.14 -7.57,-3.14c-3.7,0 -7.36,1.9 -9.37,5.48l-5.35,9.51l5.81,9.58l-8.35,-5.06l-11.77,20.94c-1.24,2.2 0.51,4.59 2.66,4.59c0.49,0 1.01,-0.13 1.52,-0.41l9.15,-5.14l-3.07,-5.7l6.74,3.64l18.81,-10.57l-5.16,-9.01l10.28,5.89c4.6,-3.97 5.06,-11.21 0.56,-15.71z" />
</svg>