<svg xmlns="http://www.w3.org/2000/svg" viewBox="0 0 47 44" width="47" height="44">
	<style>
		tspan { white-space:pre }
		.shp0 { fill: #262626 } 
	</style>
	<path id="icon" class="shp0" d="M45.06,6.01c-0.51,-0.64 -1.28,-1.01 -2.09,-1.01h-27.12c-0.85,0 -1.65,0.41 -2.15,1.09c-0.5,0.69 -0.64,1.58 -0.39,2.38l4.99,15.61c0.22,0.69 0.86,1.15 1.58,1.15h20.3c0.77,0 1.43,-0.53 1.61,-1.27l3.76,-15.68c0.19,-0.79 0.01,-1.63 -0.5,-2.27zM44.42,28.18h-26.19c-0.93,0 -1.74,-0.59 -2.03,-1.48l-7.21,-22.35c-0.68,-2.11 -2.63,-3.53 -4.85,-3.53h-1.58c-1.34,0 -2.43,1.09 -2.43,2.43c0,1.34 1.09,2.43 2.43,2.43h1.58c0.1,0 0.19,0.07 0.23,0.16l7.21,22.35c0.94,2.9 3.61,4.84 6.65,4.84h26.19c1.34,0 2.43,-1.09 2.43,-2.43c0,-1.34 -1.09,-2.43 -2.43,-2.43zM19.96,35.84c-2.14,0 -3.87,1.73 -3.87,3.87c0,2.14 1.73,3.87 3.87,3.87c2.14,0 3.87,-1.73 3.87,-3.87c0,-2.14 -1.73,-3.87 -3.87,-3.87zM40.29,35.84c-2.14,0 -3.87,1.73 -3.87,3.87c0,2.14 1.73,3.87 3.87,3.87c2.14,0 3.87,-1.73 3.87,-3.87c0,-2.14 -1.73,-3.87 -3.87,-3.87z" />
</svg>